<?xml version="1.0"?>
<svg xmlns="http://www.w3.org/2000/svg" version="1.2" baseProfile="tiny" width="800" height="483" viewBox="0 0 800 483" stroke-linecap="round" stroke-linejoin="round">
<g id="4203154">
<path d="M 107.334 316.669 L 105.234 322.269 Q 131.134 304.769 159.134 287.269 A 839.746 839.746 0 0 0 198.772 260.961 A 728.003 728.003 0 0 0 211.284 251.919 A 326.013 326.013 0 0 0 238.377 229.645 A 266.535 266.535 0 0 0 253.284 214.819 A 120.731 120.731 0 0 0 267.48 196.388 A 91.058 91.058 0 0 0 277.434 174.569 A 43.115 43.115 0 0 0 279.3 162.125 Q 279.3 154.347 276.384 146.569 Q 271.134 132.569 258.184 120.319 A 106.523 106.523 0 0 0 241.771 107.699 A 143.086 143.086 0 0 0 225.634 98.969 Q 206.034 89.869 182.234 86.369 Q 150.734 82.169 118.534 84.269 A 196.348 196.348 0 0 1 120.257 110.248 A 200.321 200.321 0 0 1 119.584 126.619 A 352.112 352.112 0 0 1 118.025 141.795 Q 117.085 149.263 115.878 155.824 A 185.654 185.654 0 0 1 114.334 163.369 A 799.552 799.552 0 0 1 97.927 221.447 A 917.782 917.782 0 0 1 91.234 241.419 A 1369.768 1369.768 0 0 1 73.46 289.681 A 1150.808 1150.808 0 0 1 62.534 316.669 Q 61.186 318.691 58.541 323.307 A 355.307 355.307 0 0 0 58.334 323.669 A 23.183 23.183 0 0 1 57.434 325.126 Q 55.189 328.454 53.434 327.869 Q 52.034 327.169 52.734 321.569 Q 53.434 315.969 53.434 313.869 Q 54.134 305.469 56.584 293.219 Q 59.034 280.969 61.484 267.669 A 381.268 381.268 0 0 1 66.307 245.198 A 344.88 344.88 0 0 1 67.084 242.119 A 622.263 622.263 0 0 1 69.397 233.375 Q 70.34 229.916 71.249 226.764 A 355.568 355.568 0 0 1 73.034 220.769 A 55.174 55.174 0 0 0 73.73 218.48 Q 74.796 214.731 76.489 207.601 A 769.013 769.013 0 0 0 77.584 202.919 A 571.495 571.495 0 0 0 79.995 191.943 Q 81.021 187.063 82.08 181.669 A 1059.795 1059.795 0 0 0 84.234 170.369 Q 87.734 151.469 91.234 129.769 Q 94.734 108.069 96.834 87.769 L 87.034 89.169 Q 84.934 115.769 78.634 143.069 Q 72.334 170.369 64.284 198.019 Q 56.234 225.669 47.484 254.019 A 799.098 799.098 0 0 0 33.231 306.253 A 733.672 733.672 0 0 0 32.434 309.669 A 479.698 479.698 0 0 0 24.509 354.152 A 528.77 528.77 0 0 0 23.684 360.769 A 335.709 335.709 0 0 0 21.321 400.275 A 320.745 320.745 0 0 0 21.584 413.269 Q 22.634 439.169 27.884 463.319 Q 33.134 487.469 45.034 507.069 A 18.024 18.024 0 0 1 45.306 507.793 Q 46.235 510.438 45.146 510.563 A 0.989 0.989 0 0 1 45.034 510.569 A 2.522 2.522 0 0 1 44.09 510.364 Q 43.282 510.036 42.298 509.185 A 14.688 14.688 0 0 1 41.534 508.469 Q 24.034 488.169 14.934 462.969 Q 5.834 437.769 3.384 410.119 Q 0.934 382.469 4.084 353.069 Q 7.234 323.669 13.534 295.669 Q 25.434 243.169 42.234 192.069 Q 59.034 140.969 70.234 93.369 Q 52.734 97.569 35.934 103.519 Q 19.134 109.469 4.434 116.469 A 25.485 25.485 0 0 1 3.472 116.833 Q 1.04 117.693 0.341 117.254 A 0.609 0.609 0 0 1 0.234 117.169 A 0.791 0.791 0 0 1 0 116.586 Q 0 115.891 0.92 114.736 A 10.065 10.065 0 0 1 0.934 114.719 Q 2.334 112.969 3.734 112.269 Q 38.734 83.569 89.134 71.669 Q 139.534 59.769 192.034 65.369 A 150.859 150.859 0 0 1 231.913 75.965 A 138.66 138.66 0 0 1 242.084 80.769 A 136.373 136.373 0 0 1 265.13 95.818 A 112.636 112.636 0 0 1 279.534 109.819 Q 294.234 126.969 298.784 147.969 A 65.942 65.942 0 0 1 300.3 161.969 Q 300.3 173.672 296.061 185.375 A 80.559 80.559 0 0 1 294.234 189.969 A 124.042 124.042 0 0 1 275.177 220.618 A 158.504 158.504 0 0 1 260.984 235.469 A 359.78 359.78 0 0 1 220.744 267.453 A 410.339 410.339 0 0 1 209.884 274.669 Q 181.534 292.869 150.034 308.269 Q 118.534 323.669 91.234 336.969 A 78.569 78.569 0 0 1 108.427 338.938 A 92.734 92.734 0 0 1 114.334 340.469 Q 126.234 343.969 137.784 349.219 A 192.971 192.971 0 0 1 156.924 359.211 A 176.838 176.838 0 0 1 159.484 360.769 Q 169.634 367.069 175.934 373.369 Q 198.334 393.669 217.934 416.419 Q 237.534 439.169 255.734 463.669 A 8.294 8.294 0 0 0 256.157 464.399 Q 256.896 465.557 258.512 467.591 A 117.794 117.794 0 0 0 259.584 468.919 A 20.037 20.037 0 0 1 260.433 470.029 Q 262.22 472.555 261.609 473.789 A 1.438 1.438 0 0 1 261.334 474.169 Q 260.634 474.869 256.084 473.119 Q 251.617 471.401 250.186 470.021 A 4.096 4.096 0 0 1 250.134 469.969 A 126.494 126.494 0 0 1 245.688 467.049 Q 243.244 465.374 240.533 463.379 A 252.531 252.531 0 0 1 237.184 460.869 Q 229.834 455.269 221.784 448.969 Q 213.734 442.669 206.034 436.019 Q 198.334 429.369 193.434 423.769 Q 189.934 420.969 176.634 409.419 Q 163.334 397.869 146.534 384.569 Q 129.734 371.269 112.234 360.069 A 190.869 190.869 0 0 0 102.888 354.434 Q 93.471 349.142 86.313 346.862 A 45.661 45.661 0 0 0 83.534 346.069 Q 81.926 345.533 79.292 344.587 A 474.894 474.894 0 0 1 77.584 343.969 Q 73.923 342.638 74.376 339.409 A 5.923 5.923 0 0 1 74.434 339.069 Q 80.034 312.469 88.434 287.269 Q 96.834 262.069 104.534 235.469 Q 114.334 202.569 123.084 168.269 A 329.951 329.951 0 0 0 131.612 118.758 A 397.045 397.045 0 0 0 133.234 94.069 A 27.386 27.386 0 0 1 133.251 93.061 Q 133.343 90.569 133.934 90.569 Q 135.975 90.569 137.354 95.198 A 24.771 24.771 0 0 1 137.434 95.469 Q 145.684 114.032 144.481 143.398 A 193.883 193.883 0 0 1 144.434 144.469 Q 143.034 174.569 137.084 207.119 A 615.932 615.932 0 0 1 124.527 261.938 A 559.665 559.665 0 0 1 122.384 269.419 Q 113.634 299.169 107.334 316.669 Z M 354.718 235.649 A 183.954 183.954 0 0 0 369.834 198.369 A 108.162 108.162 0 0 0 371.743 189.862 Q 374.656 174.058 374.384 152.519 A 116.354 116.354 0 0 0 369.962 122.647 A 152.511 152.511 0 0 0 359.334 95.469 Q 343.934 65.369 318.034 44.719 A 202.336 202.336 0 0 0 313.147 40.943 A 177.509 177.509 0 0 0 262.734 14.269 A 249.742 249.742 0 0 0 246.701 9 A 210.224 210.224 0 0 0 206.734 1.319 Q 179.434 -1.131 155.984 0.969 A 226.606 226.606 0 0 0 135.076 3.784 A 170.238 170.238 0 0 0 113.984 9.019 Q 102.39 12.738 93.667 16.867 A 92.461 92.461 0 0 0 84.234 21.969 A 139.766 139.766 0 0 0 82.654 23.17 Q 79.523 25.589 78.831 26.484 A 0.76 0.76 0 0 0 78.634 26.869 A 6.16 6.16 0 0 0 78.649 26.899 Q 79.245 28.076 79.841 27.982 A 0.656 0.656 0 0 0 80.034 27.919 Q 80.602 27.635 83.944 26.657 A 280.265 280.265 0 0 1 85.634 26.169 Q 112.934 19.169 142.334 16.719 Q 171.734 14.269 200.434 18.469 Q 229.134 22.669 256.434 33.869 Q 283.734 45.069 306.834 64.669 Q 326.434 80.769 336.584 103.169 Q 346.734 125.569 348.484 149.369 A 140.615 140.615 0 0 1 348.864 159.684 A 138.452 138.452 0 0 1 343.934 196.269 A 143.5 143.5 0 0 1 340.39 207.469 A 120.138 120.138 0 0 1 325.034 236.869 A 259.208 259.208 0 0 1 314.323 250.801 A 218.927 218.927 0 0 1 263.434 296.369 Q 228.434 318.769 190.634 332.769 Q 185.734 334.869 181.184 336.269 A 26.772 26.772 0 0 0 181.181 336.27 Q 176.634 337.67 178.034 339.069 Q 177.334 340.469 181.884 340.819 Q 186.434 341.169 192.034 339.769 A 183.252 183.252 0 0 0 201.606 338.13 Q 209.903 336.491 219.268 333.945 A 379.661 379.661 0 0 0 238.234 328.219 A 206.289 206.289 0 0 0 254.79 321.964 A 237.503 237.503 0 0 0 290.734 302.669 A 196.53 196.53 0 0 0 301.847 294.901 A 217.127 217.127 0 0 0 337.984 260.319 A 151.676 151.676 0 0 0 354.718 235.649 Z M 388.004 525.167 A 22.944 22.944 0 0 0 387.334 525.269 A 170.053 170.053 0 0 1 364.834 526.763 A 173.986 173.986 0 0 1 344.984 525.619 Q 323.634 523.169 304.034 517.569 A 269.68 269.68 0 0 1 298.57 515.946 A 240.48 240.48 0 0 1 267.284 503.919 Q 250.134 495.869 236.834 486.069 Q 213.034 468.569 192.034 445.819 Q 171.034 423.069 149.334 402.769 A 361.342 361.342 0 0 0 142.518 396.554 A 321.127 321.127 0 0 0 104.534 367.419 Q 81.434 352.369 53.434 350.269 L 50.284 350.269 A 8.026 8.026 0 0 0 50.09 350.271 Q 49.191 350.293 48.811 350.523 A 0.505 0.505 0 0 0 48.534 350.969 A 0.47 0.47 0 0 0 48.534 350.974 Q 48.541 351.677 50.634 353.769 Q 56.234 356.569 60.784 358.669 A 109.987 109.987 0 0 1 64.245 360.343 A 131.526 131.526 0 0 1 70.234 363.569 Q 65.334 383.869 63.934 404.169 Q 62.534 424.469 61.134 444.069 L 61.134 450.719 A 11.934 11.934 0 0 0 61.163 451.577 Q 61.336 453.97 62.534 454.569 A 1.496 1.496 0 0 0 62.621 454.61 Q 63.75 455.086 64.879 453.287 A 9.727 9.727 0 0 0 65.334 452.469 Q 66.734 449.669 68.134 446.169 A 2597.174 2597.174 0 0 0 70.931 437.524 Q 75.19 424.285 79.823 409.427 A 4540.087 4540.087 0 0 0 89.834 376.869 A 254.487 254.487 0 0 1 96.844 382.243 A 288.054 288.054 0 0 1 121.334 404.169 Q 136.734 419.569 152.134 436.019 Q 167.534 452.469 183.984 468.919 Q 200.434 485.369 218.634 498.669 A 218.439 218.439 0 0 0 228.6 505.498 A 254.986 254.986 0 0 0 252.934 519.319 A 178.542 178.542 0 0 0 254.118 519.906 A 191.199 191.199 0 0 0 293.534 534.019 Q 312.681 538.652 333.463 538.652 A 189.487 189.487 0 0 0 339.034 538.569 A 142.238 142.238 0 0 0 357.461 536.802 A 169.133 169.133 0 0 0 388.034 528.769 Q 390.44 527.807 391.192 526.844 A 1.42 1.42 0 0 0 391.534 525.969 Q 391.534 524.686 388.004 525.167 Z M 47.082 53.512 A 107.585 107.585 0 0 0 14.234 84.269 A 20.085 20.085 0 0 0 13.277 85.301 Q 12.78 85.873 12.245 86.559 A 46.192 46.192 0 0 0 11.084 88.119 A 11.552 11.552 0 0 0 11.076 88.129 Q 9.633 90.154 10.348 90.98 A 1.227 1.227 0 0 0 10.734 91.269 A 1.918 1.918 0 0 0 11.188 91.608 Q 13.083 92.619 17.364 89.256 A 38.26 38.26 0 0 0 19.134 87.769 A 175.487 175.487 0 0 1 43.885 73.267 A 226.038 226.038 0 0 1 75.834 60.819 Q 108.734 50.669 143.384 48.919 Q 178.034 47.169 211.634 54.519 Q 245.234 61.869 271.834 79.369 A 87.812 87.812 0 0 1 281.366 86.978 A 108.9 108.9 0 0 1 292.834 99.319 Q 302.634 111.569 308.584 126.969 A 101.437 101.437 0 0 1 311.252 134.822 A 112.886 112.886 0 0 1 315.584 160.219 A 96.12 96.12 0 0 1 315.749 165.865 Q 315.749 167.75 315.676 169.638 A 104.093 104.093 0 0 1 311.034 196.269 Q 309.634 199.769 306.134 206.769 A 77.226 77.226 0 0 0 306.069 206.898 Q 303.256 212.552 303.692 214.026 A 0.679 0.679 0 0 0 304.034 214.469 Q 305.434 215.869 311.034 209.219 Q 315.321 204.128 317.147 201.293 A 16.605 16.605 0 0 0 318.034 199.769 A 110.28 110.28 0 0 0 318.088 199.671 A 117.008 117.008 0 0 0 328.884 172.469 A 109.397 109.397 0 0 0 332.413 144.637 A 117.822 117.822 0 0 0 332.384 142.019 Q 332.034 126.269 326.084 111.219 A 95.536 95.536 0 0 0 323.45 105.177 A 104.557 104.557 0 0 0 308.934 82.869 A 125.909 125.909 0 0 0 295.127 69.505 A 148.699 148.699 0 0 0 268.684 52.069 Q 244.534 39.469 216.534 33.169 Q 188.534 26.869 158.784 26.169 Q 129.034 25.469 101.734 31.769 A 210.56 210.56 0 0 0 100.031 32.169 A 189.11 189.11 0 0 0 51.334 51.019 A 126.266 126.266 0 0 0 47.082 53.512 Z M 120.634 334.169 L 147.934 322.269 A 2031.277 2031.277 0 0 1 156.498 318.299 Q 164.209 314.744 173.834 310.369 Q 189.234 303.369 203.234 297.069 Q 217.234 290.769 227.734 286.919 A 237.922 237.922 0 0 1 229.845 286.156 Q 238.308 283.143 238.934 283.769 A 1.242 1.242 0 0 1 239.059 284.267 Q 239.127 285.588 236.958 288.128 A 27.372 27.372 0 0 1 236.484 288.669 Q 233.334 292.169 228.084 296.369 A 246.734 246.734 0 0 1 221.03 301.813 A 208.914 208.914 0 0 1 217.934 304.069 Q 213.034 307.569 210.934 308.269 Q 197.634 315.969 186.084 322.619 Q 174.534 329.269 162.634 334.869 A 147.085 147.085 0 0 1 180.968 343.618 A 188.844 188.844 0 0 1 195.534 352.719 Q 212.334 364.269 227.734 377.569 Q 243.134 390.869 256.434 403.119 Q 269.071 414.759 277.917 422.291 A 388.258 388.258 0 0 0 278.834 423.069 Q 298.434 440.569 316.284 462.269 A 294.752 294.752 0 0 0 331.566 479.508 Q 339.263 487.499 346.754 493.845 A 163.052 163.052 0 0 0 350.934 497.269 A 38.234 38.234 0 0 1 352.499 498.923 Q 355.686 502.517 355.142 504.245 A 1.589 1.589 0 0 1 355.134 504.269 Q 353.734 505.669 351.634 504.969 A 53.56 53.56 0 0 0 349.662 504.357 Q 348.309 503.963 346.734 503.569 Q 327.834 497.269 311.384 486.069 Q 294.934 474.869 279.534 460.869 Q 264.134 446.869 249.784 431.469 Q 235.434 416.069 220.734 401.369 Q 210.934 391.569 199.384 379.669 Q 187.834 367.769 175.234 357.619 A 140.226 140.226 0 0 0 152.38 342.536 A 128.837 128.837 0 0 0 148.984 340.819 Q 135.334 334.169 120.634 334.169 Z M 52.034 466.469 Q 54.134 478.369 57.634 489.569 Q 60.764 499.588 65.016 506.806 A 56.572 56.572 0 0 0 66.034 508.469 Q 66.591 508.469 66.927 509.135 A 2.877 2.877 0 0 1 67.084 509.519 A 1.554 1.554 0 0 1 67.129 509.683 Q 67.312 510.533 66.136 510.568 A 3.477 3.477 0 0 1 66.034 510.569 A 4.52 4.52 0 0 1 64.79 510.382 Q 64.245 510.226 63.656 509.94 A 10.051 10.051 0 0 1 62.884 509.519 Q 61.134 508.469 59.734 508.469 A 48.083 48.083 0 0 1 50.285 500.956 A 41.273 41.273 0 0 1 45.384 494.819 Q 40.134 486.769 36.634 466.469 A 74.47 74.47 0 0 1 35.808 460.392 Q 35.234 454.493 35.234 446.869 Q 35.234 434.969 35.934 424.119 A 222.392 222.392 0 0 1 36.557 416.425 Q 36.933 412.648 37.416 409.352 A 111.498 111.498 0 0 1 38.034 405.569 A 33.864 33.864 0 0 1 38.601 402.977 Q 39.953 397.869 42.234 397.869 Q 42.934 397.869 43.984 401.369 Q 44.966 404.644 45.642 408.837 A 82.11 82.11 0 0 1 45.734 409.419 Q 46.434 413.969 46.784 418.169 A 242.9 242.9 0 0 1 46.92 419.873 Q 47.134 422.675 47.134 423.769 A 480.246 480.246 0 0 1 48.61 438.097 A 394.863 394.863 0 0 1 49.234 446.169 Q 49.934 456.669 52.034 466.469 Z M 358.634 510.569 A 309.752 309.752 0 0 0 362.221 510.773 Q 370.825 511.211 375.784 510.919 A 115.6 115.6 0 0 0 379.878 510.598 Q 384.47 510.163 390.647 509.295 A 385.282 385.282 0 0 0 391.534 509.169 A 5.83 5.83 0 0 0 391.87 509.157 Q 392.688 509.108 394.682 508.863 A 170.417 170.417 0 0 0 395.034 508.819 Q 397.834 508.469 398.534 509.169 A 1.45 1.45 0 0 1 398.689 509.826 Q 398.689 511.036 396.784 512.669 Q 394.334 514.769 392.934 515.469 Q 381.734 518.969 372.284 520.369 A 48.535 48.535 0 0 1 368.432 520.771 Q 359.421 521.375 344.634 519.669 Q 338.334 518.969 330.634 516.869 A 157.593 157.593 0 0 1 322.414 514.396 A 122.744 122.744 0 0 1 316.634 512.319 A 74.723 74.723 0 0 1 312.97 510.788 Q 311.119 509.952 309.595 509.117 A 29.808 29.808 0 0 1 306.834 507.419 Q 303.442 505.045 305.309 503.657 A 2.97 2.97 0 0 1 305.434 503.569 Q 306.702 502.935 312.854 504.312 A 100.595 100.595 0 0 1 314.184 504.619 A 2783.49 2783.49 0 0 1 317.477 505.405 Q 322.212 506.539 324.334 507.069 Q 334.134 509.169 342.534 509.869 A 200.803 200.803 0 0 0 354.74 510.525 A 175.274 175.274 0 0 0 358.634 510.569 Z"/>
</g>
</svg>