<?xml version="1.0" encoding="utf-8"?>
<svg viewBox="0 0 500 500" xmlns="http://www.w3.org/2000/svg">
  <path style="fill: rgb(216, 216, 216); stroke: rgb(0, 0, 0);" d="M 167.446 313.845 L 167.446 329.55 L 138.832 324.113 L 138.832 355.963 C 138.832 355.963 238.384 440.924 249.414 412.376 C 260.443 383.828 192.596 322.686 217.194 304.837 C 217.194 304.837 218.526 288.094 218.282 288.094 C 218.039 288.094 216.949 246.641 216.949 246.641 C 216.949 246.641 266.044 258.23 266.044 258.506 C 266.044 258.782 261.47 299.148 261.47 299.148 C 261.47 299.148 231.959 273.163 237.269 301.09 C 242.579 329.017 251.323 409.58 237.269 336.384 L 261.893 337.489 C 261.893 337.489 270.156 368.407 270.156 368.683 C 270.156 368.959 273.69 375.679 273.69 375.679 C 273.69 375.679 285.021 409.853 285.021 410.13 C 285.021 410.406 303.482 384.473 303.482 384.473 L 322.974 291.633 L 283.317 282.684 L 293.839 260.068 C 293.839 260.068 451.94 285.205 452.208 285.205 C 452.476 285.205 444.531 306.337 444.531 306.337 C 444.531 306.337 359.386 295.033 359.126 294.757 C 358.866 294.481 343.406 409.637 343.406 409.637 C 343.406 409.637 266.427 435.326 266.167 435.05 C 265.907 434.774 211.537 430.398 211.537 430.398 L 175.285 420.143 L 148.484 395.174 L 111.038 354.954 L 94.903 333.7 L 46.255 324.709 L 51.804 200.595 L 51.804 51.534 L 137.249 63.85 L 136.81 106.942 C 136.81 106.942 116.54 118.774 116.011 118.774 C 115.483 118.774 94.685 139.353 94.685 139.353 L 110.194 158.674 C 110.194 158.674 141.067 172.109 141.336 172.394 C 141.604 172.679 142.642 199.88 142.642 199.88 L 186.995 206.988 L 184.281 43.924 L 287.616 56.142 L 287.08 93.18 L 218.216 93.18 L 220.077 151.574 L 287.217 152.151 C 287.217 152.151 284.081 180.343 284.081 180.628 C 284.081 180.913 210.327 182.017 210.327 182.017 L 214.634 202.769 L 290.588 204.227 L 335.445 60.527 L 368.388 69.562 C 368.388 69.562 422.782 170.799 422.782 171.084 C 422.782 171.369 427.859 53.969 427.859 53.969 C 427.859 53.969 475.478 56.575 475.478 56.851 C 475.478 57.128 452.834 229.589 452.834 229.848 C 452.834 230.106 392.144 220.581 392.144 220.581 L 351.905 125.427 C 351.905 125.427 315.701 239.581 315.701 239.866 C 315.701 240.151 86.219 220.744 86.219 220.744 C 86.219 220.744 64.136 262.752 64.136 263.028 C 64.136 263.304 74.291 313.127 74.543 313.127 C 74.795 313.127 109.35 313.361 109.35 313.646 C 109.35 313.931 125.298 244.465 125.298 244.465 L 182.226 261.621 L 178.016 281.538 L 136.167 275.187 L 136.167 291.021 L 163.79 296.716" transform="matrix(1, 0, 0, 1, -6.090494549652149, 4.710286271163376)"/>
</svg>